<svg width="20" height="20" viewBox="0 0 20 20" fill="none" xmlns="http://www.w3.org/2000/svg">
<g id="Twitter logo" clip-path="url(#clip0_38_1238)">
<path id="XMLID_1_" d="M20.0039 3.7957C19.2664 4.12149 18.4773 4.34453 17.6484 4.4418C18.4945 3.93281 19.1465 3.12695 19.4551 2.17188C18.6601 2.64063 17.7855 2.9836 16.848 3.1668C16.0992 2.36641 15.0297 1.86875 13.8519 1.86875C11.582 1.86875 9.74686 3.70977 9.74686 5.97383C9.74686 6.29414 9.78123 6.60859 9.85545 6.91133C6.44217 6.73985 3.41756 5.10469 1.39334 2.62305C1.03905 3.2293 0.838657 3.93242 0.838657 4.68711C0.838657 6.11094 1.56483 7.36875 2.66248 8.10625C1.98788 8.0832 1.35897 7.90039 0.804282 7.5918C0.804282 7.60899 0.804282 7.62617 0.804282 7.64336C0.804282 9.6332 2.22225 11.291 4.09764 11.6684C3.75467 11.7598 3.38866 11.8113 3.01717 11.8113C2.75428 11.8113 2.49686 11.7828 2.2453 11.7371C2.76561 13.3668 4.28631 14.5559 6.08162 14.5902C4.67498 15.6938 2.90858 16.3457 0.981625 16.3457C0.649985 16.3457 0.324203 16.3285 0.00389099 16.2887C1.82225 17.4551 3.97772 18.1355 6.29881 18.1355C13.8515 18.1355 17.9797 11.8805 17.9797 6.45469C17.9797 6.27735 17.9738 6.10039 17.9683 5.92305C18.7574 5.33945 19.4551 4.61875 20.0039 3.7957Z" fill="white"/>
</g>
<defs>
<clipPath id="clip0_38_1238">
<rect width="20" height="20" fill="white"/>
</clipPath>
</defs>
</svg>
